HIERARCHY
ROOT Hips
{
	OFFSET 51.700699 -41.235817 100.970993
	CHANNELS 6 Xposition Yposition Zposition Xrotation Yrotation Zrotation
	JOINT spine
	{
		OFFSET 0.000000 -0.507027 8.817047
		CHANNELS 3 Xrotation Yrotation Zrotation
		JOINT spine1
		{
			OFFSET 0.000000 0.000000 10.776604
			CHANNELS 3 Xrotation Yrotation Zrotation
			JOINT spine2
			{
				OFFSET 0.000000 -0.000004 10.325905
				CHANNELS 3 Xrotation Yrotation Zrotation
				JOINT Neck
				{
					OFFSET 0.000000 -1.263954 26.511002
					CHANNELS 3 Xrotation Yrotation Zrotation
					JOINT Head
					{
						OFFSET 0.000000 0.000000 8.009659
						CHANNELS 3 Xrotation Yrotation Zrotation
						End Site
						{
							OFFSET 0.000000 6.393856 19.387894
						}
					}
				}
				JOINT RightShoulder
				{
					OFFSET -4.347950 0.605423 11.151199
					CHANNELS 3 Xrotation Yrotation Zrotation
					JOINT RightArm
					{
						OFFSET 0.000000 -0.000004 14.625793
						CHANNELS 3 Xrotation Yrotation Zrotation
						JOINT RightArmRoll
						{
							OFFSET 0.000000 0.000000 7.383392
							CHANNELS 3 Xrotation Yrotation Zrotation
							JOINT RightForeArm
							{
								OFFSET 0.000000 -0.000004 21.505203
								CHANNELS 3 Xrotation Yrotation Zrotation
								JOINT RightForeArmRoll
								{
									OFFSET 0.000000 0.000000 8.285324
									CHANNELS 3 Xrotation Yrotation Zrotation
									JOINT RightHand
									{
										OFFSET 0.000000 -0.000004 16.626801
										CHANNELS 3 Xrotation Yrotation Zrotation
										End Site
										{
											OFFSET 0.000000 0.000000 0.100006
										}
									}
								}
							}
						}
					}
				}
				JOINT LeftShoulder
				{
					OFFSET 4.347950 0.605423 11.151199
					CHANNELS 3 Xrotation Yrotation Zrotation
					JOINT LeftArm
					{
						OFFSET 0.000000 -0.000004 14.625793
						CHANNELS 3 Xrotation Yrotation Zrotation
						JOINT LeftArmRoll
						{
							OFFSET 0.000000 0.000000 7.383392
							CHANNELS 3 Xrotation Yrotation Zrotation
							JOINT LeftForeArm
							{
								OFFSET 0.000000 -0.000004 21.505203
								CHANNELS 3 Xrotation Yrotation Zrotation
								JOINT LeftForeArmRoll
								{
									OFFSET 0.000000 0.000000 8.285309
									CHANNELS 3 Xrotation Yrotation Zrotation
									JOINT LeftHand
									{
										OFFSET 0.000000 -0.000004 16.626801
										CHANNELS 3 Xrotation Yrotation Zrotation
										End Site
										{
											OFFSET 0.000000 0.000000 0.100006
										}
									}
								}
							}
						}
					}
				}
			}
		}
	}
	JOINT RightUpLeg
	{
		OFFSET -7.815102 1.202171 -1.433090
		CHANNELS 3 Xrotation Yrotation Zrotation
		JOINT RightUpLegRoll
		{
			OFFSET 0.000000 -0.000004 19.495903
			CHANNELS 3 Xrotation Yrotation Zrotation
			JOINT RightLeg
			{
				OFFSET 0.000000 0.000004 -24.142700
				CHANNELS 3 Xrotation Yrotation Zrotation
				JOINT RightLegRoll
				{
					OFFSET 0.000000 -0.000004 24.221703
					CHANNELS 3 Xrotation Yrotation Zrotation
					JOINT RightFoot
					{
						OFFSET 0.000000 -0.000004 20.160507
						CHANNELS 3 Xrotation Yrotation Zrotation
						JOINT RightToeBase
						{
							OFFSET 0.000000 -0.000004 16.853195
							CHANNELS 3 Xrotation Yrotation Zrotation
							End Site
							{
								OFFSET 0.007145 0.940781 8.161865
							}
						}
					}
				}
			}
		}
	}
	JOINT LeftUpLeg
	{
		OFFSET 7.815102 1.202171 -1.433090
		CHANNELS 3 Xrotation Yrotation Zrotation
		JOINT LeftUpLegRoll
		{
			OFFSET 0.000000 -0.000004 19.495903
			CHANNELS 3 Xrotation Yrotation Zrotation
			JOINT LeftLeg
			{
				OFFSET 0.000000 -0.000004 24.142601
				CHANNELS 3 Xrotation Yrotation Zrotation
				JOINT LeftLegRoll
				{
					OFFSET 0.000000 -0.000004 24.445602
					CHANNELS 3 Xrotation Yrotation Zrotation
					JOINT LeftFoot
					{
						OFFSET 0.000000 -0.000004 19.936600
						CHANNELS 3 Xrotation Yrotation Zrotation
						JOINT LeftToeBase
						{
							OFFSET 0.000000 -0.000004 16.853195
							CHANNELS 3 Xrotation Yrotation Zrotation
							End Site
							{
								OFFSET -0.032013 0.940781 8.161865
							}
						}
					}
				}
			}
		}
	}
}
MOTION
Frames: 4
Frame Time: 0.041667
50.643002 -20.089720 69.623695 34.931701 0.810099 -1.074117 2.156961 -0.759949 0.041540 8.318096 -1.515911 0.107296 9.963414 -1.514471 0.125433 13.195161 3.884877 2.147141 -8.994755 8.603474 1.834223 -4.635058 -53.034561 -4.929755 128.945748 -62.198578 90.902359 0.000001 -0.000000 0.000000 76.193465 -2.607465 1.366286 -0.000017 0.000026 -3.012121 -4.999604 -7.998719 -0.000024 -15.085941 53.619355 17.692092 122.849545 64.660281 -82.465368 0.000002 0.000002 0.000000 70.918469 1.701221 0.146350 -0.000005 -0.000002 3.007054 -4.999845 7.998696 -0.000047 -102.733306 -175.072789 1.925491 179.999991 0.000005 -0.725006 93.332978 -3.231331 -4.251963 -0.000004 -0.000005 1.495920 83.269391 7.120428 -0.240860 25.458883 -7.355617 0.004770 -103.341589 171.461148 2.210005 -0.000005 -0.000004 -0.701601 -88.858760 -0.312857 0.727614 -0.000003 -0.000001 -2.229100 84.740538 -6.222071 -3.274861 25.451050 7.346627 0.008720 
50.633701 -20.089518 69.804077 34.925021 0.801896 -1.074989 2.145645 -0.757586 0.039926 8.295431 -1.511466 0.102708 9.940750 -1.510094 0.120797 13.193977 3.885752 2.150511 -8.992674 8.598306 1.837521 -4.611588 -53.114450 -4.909299 128.751798 -62.074187 90.946257 0.000002 0.000000 -0.000002 75.829955 -2.811702 1.543920 -0.000019 0.000026 -3.012123 -4.999602 -7.998719 -0.000029 -15.057417 53.651436 17.658194 122.863888 64.540575 -82.666661 -0.000002 0.000000 0.000000 70.633759 1.864882 0.009266 -0.000006 -0.000002 3.007051 -4.999845 7.998698 -0.000044 -102.508968 -175.074756 1.912579 179.999991 0.000005 -0.722998 93.581392 -3.272424 -4.277679 -0.000007 -0.000005 1.489500 83.238470 7.126538 -0.259670 25.458880 -7.355616 0.004771 -103.115141 171.441559 2.195936 -0.000006 -0.000004 -0.700443 -88.604670 -0.262658 0.776597 -0.000004 -0.000001 -2.217769 84.708512 -6.228464 -3.249601 25.451351 7.346622 0.008294 
50.630001 -20.107508 69.998497 34.917242 0.793423 -1.076465 2.134452 -0.755109 0.038199 8.273004 -1.506793 0.098065 9.918327 -1.505489 0.116104 13.189388 3.886936 2.154643 -8.987080 8.593208 1.841212 -4.588901 -53.192595 -4.889594 128.563968 -61.946380 90.997060 0.000000 -0.000000 0.000002 75.461685 -3.017267 1.720506 -0.000017 0.000025 -3.012121 -4.999608 -7.998719 -0.000026 -15.031260 53.682189 17.627134 122.884215 64.415118 -82.875617 -0.000002 -0.000000 -0.000000 70.346208 2.030690 -0.127893 -0.000006 -0.000002 3.007052 -4.999845 7.998697 -0.000044 -102.282636 -175.077392 1.897109 179.999991 0.000005 -0.720007 93.831896 -3.312491 -4.302161 -0.000005 -0.000005 1.483010 83.206075 7.132168 -0.275909 25.458881 -7.355616 0.004771 -102.887381 171.422312 2.183359 -0.000005 -0.000004 -0.699252 -88.348538 -0.212825 0.824846 -0.000004 -0.000001 -2.206290 84.673220 -6.234761 -3.225420 25.451957 7.346634 0.007302 
50.612301 -20.137621 70.146194 34.908349 0.784651 -1.078596 2.123424 -0.752512 0.036338 8.250902 -1.501849 0.093364 9.896220 -1.500606 0.111347 13.180688 3.888446 2.159601 -8.977389 8.588130 1.845297 -4.567355 -53.268386 -4.871087 128.383241 -61.814359 91.055820 0.000004 0.000000 -0.000001 75.088969 -3.224229 1.895958 -0.000018 0.000026 -3.012116 -4.999603 -7.998723 -0.000026 -15.007930 53.711255 17.599473 122.910005 64.283650 -83.091696 -0.000001 0.000003 0.000000 70.055413 2.198727 -0.265135 -0.000003 -0.000002 3.007050 -4.999846 7.998695 -0.000045 -102.054194 -175.080671 1.881791 179.999991 0.000005 -0.717998 94.084620 -3.351410 -4.325448 -0.000006 -0.000004 1.476430 83.172231 7.137199 -0.289292 25.458881 -7.355617 0.004773 -102.658249 171.403570 2.171154 -0.000009 -0.000004 -0.698032 -88.090377 -0.163511 0.872343 -0.000002 -0.000001 -2.194701 84.634513 -6.240813 -3.202114 25.453069 7.346631 0.005651 
